# xmcd
#
# Track frame offsets:
#  150
#  12937
#  26132
#  39889
#  52550
#  64862
#  78020
#  89120
#  100712
#  113262
#  124675
#  135520
#  147297
#  158872
#  170390
#  183417
#  196537
#  209700
#  223087
#  235945
#  247140
#  260365
#
# Disc length: 3709 seconds
#
# Revision: 2
# Processed by: cddbd v1.5.1PL2 Copyright (c) Steve Scherf et al.
# Submitted via: Collectorz.com_Music_Collector 6.9
#
DISCID=250e7b16
DTITLE=Little Jimmy Dickens Collection - I'm Little But I'm Loud
DYEAR=1996
DGENRE=Country/Oldies
TTITLE0=Take An Old Cold Tater (And Wait)
TTITLE1=Country Boy
TTITLE2=Pennies For Papa
TTITLE3=My Heart's Bouquet
TTITLE4=A-Sleeping At The Foot Of The Bed
TTITLE5=Hillbilly Fever
TTITLE6=I'm Little But I'm Loud
TTITLE7=It May Be Silly (But Ain't It Fun)
TTITLE8=You All Come
TTITLE9=Rockin' With Red
TTITLE10=Out Behind The Barn
TTITLE11=Take Me As I Am (Or Let Me Go)
TTITLE12=We Could
TTITLE13=(I Got) A Hole In My Pocket
TTITLE14=John Henry
TTITLE15=Farewell Party
TTITLE16=The Violet And A Rose
TTITLE17=Another Bridge To Burn
TTITLE18=Life Turned Her That Way
TTITLE19=May The Bird Of Paradise Fly Up Your Nose
TTITLE20=Country Music Lover
TTITLE21=(You've Been Quite A Doll) Raggedy Ann
EXTD=
EXTT0=
EXTT1=
EXTT2=
EXTT3=
EXTT4=
EXTT5=
EXTT6=
EXTT7=
EXTT8=
EXTT9=
EXTT10=
EXTT11=
EXTT12=
EXTT13=
EXTT14=
EXTT15=
EXTT16=
EXTT17=
EXTT18=
EXTT19=
EXTT20=
EXTT21=
PLAYORDER=
